<svg xmlns="http://www.w3.org/2000/svg" width="100" height="100" viewBox="0 0 100 100">
  <path d="M272.5,495.7L452,392.1c13.5-7.8,21.7-22.1,21.7-37.7V147.1c0-15.5-8.3-29.9-21.7-37.7L272.5,5.8 C259-2,242.5-2,229,5.8L49.5,109.4c-13.5,7.8-21.7,22.1-21.7,37.7v207.3c0,15.5,8.3,29.9,21.7,37.7L229,495.7 C242.5,503.5,259,503.5,272.5,495.7z" style="transform: scale(.08) translate(400px, 400px)" fill="transparent"></path>
  <path d="M50,10L15,30v40l35,20l34.99-19.994L85,69.99V30L50,10z M50,17.699L74.89,31.92l-6.732,3.848L50,25.397L31.846,35.771  l-6.738-3.851L50,17.699z M64.795,41.546v13.059L53.369,48.08V35.02L64.795,41.546z M46.631,35.02v13.057l-11.423,6.527V41.546  L46.631,35.02z M46.631,80.377L21.735,66.152v-28.46l6.734,3.848v20.761L46.631,72.68V80.377z M38.571,60.377l11.426-6.529  l11.429,6.529L50,66.904L38.571,60.377z M78.265,66.152L53.369,80.377V72.68L71.53,62.305V41.54l6.734-3.848V66.152z" fill="#0abde3"></path>
</svg>